<mxfile host="app.diagrams.net" modified="2020-06-18T15:00:18.241Z" agent="5.0 (Windows NT 10.0; Win64; x64) AppleWebKit/537.36 (KHTML, like Gecko) Chrome/83.0.4103.97 Safari/537.36" etag="ON3MEytMeTKAapYq_c7Z" version="13.2.6" type="github">
  <diagram id="hZi3Nb08FEm_SXACoeds" name="Page-1">
    <mxGraphModel dx="858" dy="428" grid="1" gridSize="10" guides="1" tooltips="1" connect="1" arrows="1" fold="1" page="1" pageScale="1" pageWidth="827" pageHeight="1169" math="0" shadow="0">
      <root>
        <mxCell id="0" />
        <mxCell id="1" parent="0" />
        <mxCell id="-PXGLhBAy0Ajk7IsL0Ls-132" value="board" style="html=1;verticalAlign=bottom;endArrow=block;" edge="1" parent="1" source="-PXGLhBAy0Ajk7IsL0Ls-111">
          <mxGeometry x="0.0348" y="-3" width="80" relative="1" as="geometry">
            <mxPoint x="889" y="230" as="sourcePoint" />
            <mxPoint x="659" y="230" as="targetPoint" />
            <mxPoint as="offset" />
          </mxGeometry>
        </mxCell>
        <mxCell id="-PXGLhBAy0Ajk7IsL0Ls-129" value="int boardno" style="html=1;verticalAlign=bottom;endArrow=block;" edge="1" parent="1" source="-PXGLhBAy0Ajk7IsL0Ls-111">
          <mxGeometry x="0.0261" width="80" relative="1" as="geometry">
            <mxPoint x="894" y="180" as="sourcePoint" />
            <mxPoint x="420" y="180" as="targetPoint" />
            <mxPoint as="offset" />
          </mxGeometry>
        </mxCell>
        <mxCell id="-PXGLhBAy0Ajk7IsL0Ls-1" value="" style="html=1;points=[];perimeter=orthogonalPerimeter;" vertex="1" parent="1">
          <mxGeometry x="409" y="146" width="10" height="40" as="geometry" />
        </mxCell>
        <mxCell id="-PXGLhBAy0Ajk7IsL0Ls-2" value="" style="html=1;points=[];perimeter=orthogonalPerimeter;" vertex="1" parent="1">
          <mxGeometry x="409" y="201" width="10" height="40" as="geometry" />
        </mxCell>
        <mxCell id="-PXGLhBAy0Ajk7IsL0Ls-5" value="" style="html=1;points=[];perimeter=orthogonalPerimeter;" vertex="1" parent="1">
          <mxGeometry x="169" y="146" width="10" height="97" as="geometry" />
        </mxCell>
        <mxCell id="-PXGLhBAy0Ajk7IsL0Ls-7" value="getBoardno(req)" style="html=1;verticalAlign=bottom;endArrow=block;" edge="1" parent="1">
          <mxGeometry x="-0.0578" width="80" relative="1" as="geometry">
            <mxPoint x="180" y="158" as="sourcePoint" />
            <mxPoint x="410" y="158" as="targetPoint" />
            <mxPoint as="offset" />
          </mxGeometry>
        </mxCell>
        <mxCell id="-PXGLhBAy0Ajk7IsL0Ls-9" value="" style="html=1;points=[];perimeter=orthogonalPerimeter;" vertex="1" parent="1">
          <mxGeometry x="649" y="203" width="10" height="40" as="geometry" />
        </mxCell>
        <mxCell id="-PXGLhBAy0Ajk7IsL0Ls-10" value="update(board)" style="html=1;verticalAlign=bottom;endArrow=block;" edge="1" parent="1">
          <mxGeometry x="-0.0578" width="80" relative="1" as="geometry">
            <mxPoint x="420" y="211" as="sourcePoint" />
            <mxPoint x="650" y="211" as="targetPoint" />
            <mxPoint as="offset" />
          </mxGeometry>
        </mxCell>
        <mxCell id="-PXGLhBAy0Ajk7IsL0Ls-21" value="view(boardnum)&amp;nbsp;" style="html=1;verticalAlign=bottom;endArrow=block;" edge="1" parent="1">
          <mxGeometry x="-0.0578" width="80" relative="1" as="geometry">
            <mxPoint x="179" y="210" as="sourcePoint" />
            <mxPoint x="409" y="210" as="targetPoint" />
            <mxPoint as="offset" />
          </mxGeometry>
        </mxCell>
        <mxCell id="-PXGLhBAy0Ajk7IsL0Ls-24" value="int boardno" style="html=1;verticalAlign=bottom;endArrow=block;" edge="1" parent="1">
          <mxGeometry x="0.0348" y="-3" width="80" relative="1" as="geometry">
            <mxPoint x="409" y="180" as="sourcePoint" />
            <mxPoint x="179" y="180" as="targetPoint" />
            <mxPoint as="offset" />
          </mxGeometry>
        </mxCell>
        <mxCell id="-PXGLhBAy0Ajk7IsL0Ls-27" value="&lt;span style=&quot;font-size: 10pt ; font-family: &amp;#34;arial&amp;#34;&quot;&gt;BoardUpdateController&lt;/span&gt;" style="shape=umlLifeline;perimeter=lifelinePerimeter;whiteSpace=wrap;html=1;container=1;collapsible=0;recursiveResize=0;outlineConnect=0;" vertex="1" parent="1">
          <mxGeometry x="78" y="80" width="192" height="350" as="geometry" />
        </mxCell>
        <mxCell id="-PXGLhBAy0Ajk7IsL0Ls-28" value="Service" style="shape=umlLifeline;perimeter=lifelinePerimeter;whiteSpace=wrap;html=1;container=1;collapsible=0;recursiveResize=0;outlineConnect=0;" vertex="1" parent="1">
          <mxGeometry x="364" y="80" width="100" height="350" as="geometry" />
        </mxCell>
        <mxCell id="-PXGLhBAy0Ajk7IsL0Ls-29" value="" style="html=1;points=[];perimeter=orthogonalPerimeter;" vertex="1" parent="-PXGLhBAy0Ajk7IsL0Ls-28">
          <mxGeometry x="45" y="66" width="10" height="40" as="geometry" />
        </mxCell>
        <mxCell id="-PXGLhBAy0Ajk7IsL0Ls-30" value="" style="html=1;points=[];perimeter=orthogonalPerimeter;" vertex="1" parent="-PXGLhBAy0Ajk7IsL0Ls-28">
          <mxGeometry x="45" y="121" width="10" height="40" as="geometry" />
        </mxCell>
        <mxCell id="-PXGLhBAy0Ajk7IsL0Ls-33" value="Dao" style="shape=umlLifeline;perimeter=lifelinePerimeter;whiteSpace=wrap;html=1;container=1;collapsible=0;recursiveResize=0;outlineConnect=0;" vertex="1" parent="1">
          <mxGeometry x="604" y="80" width="100" height="350" as="geometry" />
        </mxCell>
        <mxCell id="-PXGLhBAy0Ajk7IsL0Ls-111" value="Dto" style="shape=umlLifeline;perimeter=lifelinePerimeter;whiteSpace=wrap;html=1;container=1;collapsible=0;recursiveResize=0;outlineConnect=0;" vertex="1" parent="1">
          <mxGeometry x="860" y="80" width="100" height="350" as="geometry" />
        </mxCell>
        <mxCell id="-PXGLhBAy0Ajk7IsL0Ls-115" value="getBoardno(req)" style="html=1;verticalAlign=bottom;endArrow=block;" edge="1" parent="-PXGLhBAy0Ajk7IsL0Ls-111" source="-PXGLhBAy0Ajk7IsL0Ls-29">
          <mxGeometry x="-0.0578" width="80" relative="1" as="geometry">
            <mxPoint x="-190" y="78" as="sourcePoint" />
            <mxPoint x="46" y="78" as="targetPoint" />
            <mxPoint as="offset" />
          </mxGeometry>
        </mxCell>
        <mxCell id="-PXGLhBAy0Ajk7IsL0Ls-116" value="" style="html=1;points=[];perimeter=orthogonalPerimeter;" vertex="1" parent="-PXGLhBAy0Ajk7IsL0Ls-111">
          <mxGeometry x="45" y="123" width="10" height="40" as="geometry" />
        </mxCell>
        <mxCell id="-PXGLhBAy0Ajk7IsL0Ls-117" value="update(board)" style="html=1;verticalAlign=bottom;endArrow=block;" edge="1" parent="-PXGLhBAy0Ajk7IsL0Ls-111" source="-PXGLhBAy0Ajk7IsL0Ls-38">
          <mxGeometry x="-0.0578" width="80" relative="1" as="geometry">
            <mxPoint x="-190" y="131" as="sourcePoint" />
            <mxPoint x="46" y="131" as="targetPoint" />
            <mxPoint as="offset" />
          </mxGeometry>
        </mxCell>
        <mxCell id="-PXGLhBAy0Ajk7IsL0Ls-113" value="" style="html=1;points=[];perimeter=orthogonalPerimeter;" vertex="1" parent="-PXGLhBAy0Ajk7IsL0Ls-111">
          <mxGeometry x="45" y="68" width="10" height="40" as="geometry" />
        </mxCell>
        <mxCell id="-PXGLhBAy0Ajk7IsL0Ls-34" value="" style="html=1;points=[];perimeter=orthogonalPerimeter;" vertex="1" parent="1">
          <mxGeometry x="169" y="146" width="10" height="97" as="geometry" />
        </mxCell>
        <mxCell id="-PXGLhBAy0Ajk7IsL0Ls-36" value="" style="html=1;verticalAlign=bottom;endArrow=block;" edge="1" parent="1">
          <mxGeometry x="-0.0578" width="80" relative="1" as="geometry">
            <mxPoint x="180" y="158" as="sourcePoint" />
            <mxPoint x="410" y="158" as="targetPoint" />
            <mxPoint as="offset" />
          </mxGeometry>
        </mxCell>
        <mxCell id="-PXGLhBAy0Ajk7IsL0Ls-38" value="" style="html=1;points=[];perimeter=orthogonalPerimeter;" vertex="1" parent="1">
          <mxGeometry x="649" y="203" width="10" height="40" as="geometry" />
        </mxCell>
        <mxCell id="-PXGLhBAy0Ajk7IsL0Ls-134" value="board" style="html=1;verticalAlign=bottom;endArrow=block;" edge="1" parent="1">
          <mxGeometry x="0.0348" y="-3" width="80" relative="1" as="geometry">
            <mxPoint x="655" y="230" as="sourcePoint" />
            <mxPoint x="419" y="230" as="targetPoint" />
            <mxPoint as="offset" />
          </mxGeometry>
        </mxCell>
        <mxCell id="-PXGLhBAy0Ajk7IsL0Ls-135" value="board" style="html=1;verticalAlign=bottom;endArrow=block;" edge="1" parent="1">
          <mxGeometry x="0.0348" y="-3" width="80" relative="1" as="geometry">
            <mxPoint x="410" y="230" as="sourcePoint" />
            <mxPoint x="179" y="230" as="targetPoint" />
            <mxPoint as="offset" />
          </mxGeometry>
        </mxCell>
      </root>
    </mxGraphModel>
  </diagram>
</mxfile>
